<svg width="14" height="14" viewBox="0 0 14 14" fill="none" xmlns="http://www.w3.org/2000/svg">
<path fill-rule="evenodd" clip-rule="evenodd" d="M7 14C10.866 14 14 10.866 14 7C14 3.13401 10.866 0 7 0C3.13401 0 0 3.13401 0 7C0 10.866 3.13401 14 7 14ZM3.36 5.32397C3.36 3.31477 4.99281 1.68 6.99984 1.68C9.00693 1.68 10.64 3.31477 10.64 5.32397C10.64 7.25799 7.33759 11.7766 7.19689 11.9679L7.06574 12.1467C7.05023 12.1677 7.02595 12.18 6.99984 12.18C6.97413 12.18 6.94969 12.1677 6.93434 12.1467L6.80311 11.9679C6.66249 11.7766 3.36 7.25799 3.36 5.32397ZM8.30373 5.32397C8.30373 4.60411 7.71897 4.0187 6.99984 4.0187C6.28111 4.0187 5.69595 4.60411 5.69595 5.32397C5.69595 6.04345 6.28114 6.62923 6.99984 6.62923C7.71894 6.62923 8.30373 6.04345 8.30373 5.32397Z" fill="#5C5C5C"/>
</svg>
